<?xml version="1.0" standalone="no"?><!DOCTYPE svg PUBLIC "-//W3C//DTD SVG 1.1//EN" "http://www.w3.org/Graphics/SVG/1.1/DTD/svg11.dtd"><svg t="1637479152888" class="icon" viewBox="0 0 1024 1024" version="1.1" xmlns="http://www.w3.org/2000/svg" p-id="2612" xmlns:xlink="http://www.w3.org/1999/xlink" width="200" height="200" fill="#000000"><defs><style type="text/css"></style></defs><path d="M511.6 287.7c-85.5 0-155.3 69.8-155.3 155.3s69.8 155.3 155.3 155.3S666.9 528.5 666.9 443s-69.8-155.3-155.3-155.3z m69.8 155.2c0 38.4-31.4 69.8-69.8 69.8s-69.8-31.4-69.8-69.8 31.4-69.8 69.8-69.8c38.4-0.5 69.8 30.9 69.8 69.8z" p-id="2613"></path><path d="M868.6 880.8c-53.5-44.2-115.7-78.5-181.4-100 34.3-18 66.3-41.3 93.6-68.6 34.9-34.9 62.2-75.6 81.4-120.9 19.8-47.1 29.7-96.5 29.7-148.3 0-51.2-9.9-101.2-29.7-148.3-19.2-45.4-46.5-86.1-81.4-120.9s-75.6-62.2-120.9-81.4c-47.1-19.8-96.5-29.7-148.3-29.7s-101.2 9.9-148.3 29.7c-45.4 19.2-86.1 46.5-120.9 81.4s-62.2 75.6-81.4 120.9c-19.8 47.1-29.7 96.5-29.7 148.3 0 51.2 9.9 101.2 29.7 148.3 19.2 45.4 46.5 86.1 81.4 120.9 27.9 27.9 59.3 51.2 94.2 68.6-64.5 21.5-125.6 54.7-177.9 97.1-18 14.5-20.9 41.9-6.4 59.9 14.5 18 41.9 20.9 59.9 6.4 84.3-68.6 190.1-105.8 298.9-105.8 111.1 0 219.8 39.5 304.7 111.1 7.6 6.4 17.4 9.9 27.3 9.9 12.8 0 24.4-5.8 32.6-15.1 14.5-16.9 12.8-42.4-2.9-58.1 0.5-1.4-3-4.3-4.2-5.4z m-84.3-323.3c-15.1 34.9-36.1 66.9-63.4 93.6-27.3 27.3-58.7 48.3-93.6 63.4-36.6 15.1-75 23.3-114.6 23.3-39.5 0-78.5-7.6-114.6-23.3-34.9-15.1-66.9-36.1-93.6-63.4-27.3-27.3-48.3-58.7-63.4-93.6-15.1-36.6-23.3-75-23.3-115.1s7.6-78.5 23.3-115.1c15.1-34.9 36.1-66.9 63.4-93.6 27.3-27.3 58.7-48.3 93.6-63.4 36.6-15.1 75-23.3 114.6-23.3 40.1 0 78.5 7.6 115.1 23.3 34.9 15.1 66.9 36.1 93.6 63.4 27.3 27.3 48.3 58.7 63.4 93.6 15.1 36.6 23.3 75 23.3 115.1s-8.6 79-23.8 115.1z" p-id="2614"></path></svg>